<?xml version="1.0" encoding="UTF-8" standalone="no"?>
<svg
   version="1.0"
   width="40"
   height="40"
   viewBox="0 0 40 40"
   preserveAspectRatio="xMidYMid"
   id="svg4"
   xmlns="http://www.w3.org/2000/svg"
   xmlns:svg="http://www.w3.org/2000/svg">
  <defs
     id="defs4" />
  <g
     id="g43"
     transform="matrix(1.1422053,0,0,1.1422053,-2.8441059,-2.8441089)">
    <path
       d="M 5.351927,9.4600861 C 4.6561095,9.6322221 4.1566726,10.158328 3.9287742,10.960821 l -0.053338,0.186683 v 6.279328 c 0.00242,6.577536 0.026669,9.091691 0.099403,9.632344 0.08728,0.676422 0.295783,1.255866 0.6303573,1.765 0.1988049,0.303057 0.6764218,0.778249 0.9916004,0.984327 0.6109617,0.404884 1.3358725,0.659451 2.1092724,0.746731 0.1309203,0.01455 1.1031252,0.02425 2.4123287,0.02425 3.491209,0 12.219233,-0.04849 12.910201,-0.07031 0.581868,-0.0194 0.652178,-0.02667 0.909169,-0.09455 1.098277,-0.283661 1.990475,-0.877651 2.599012,-1.728633 0.191531,-0.26669 0.46307,-0.785523 0.584292,-1.112823 0.164863,-0.446099 0.298208,-1.01827 0.358819,-1.532254 0.03152,-0.295783 0.02182,-0.286085 0.28851,-0.286085 0.603688,-0.0024 1.735907,-0.191531 2.47294,-0.412156 1.454671,-0.44125 2.6475,-1.139492 3.636676,-2.131093 0.412157,-0.412156 0.671573,-0.732184 0.984328,-1.202528 1.120096,-1.697115 1.508008,-3.784568 1.110398,-5.952027 -0.409732,-2.21838 -1.478915,-3.932467 -3.197851,-5.118024 C 31.625702,10.146206 30.415901,9.6807111 28.968504,9.4697839 28.696966,9.4309927 27.950235,9.4285682 17.100817,9.4237193 6.1374491,9.416446 5.5143652,9.4188704 5.351927,9.4600861 Z m 23.410499,1.6340799 c 1.19283,0.181834 2.048661,0.50671 2.986923,1.129794 0.749156,0.499437 1.219499,0.964932 1.675296,1.663174 0.884925,1.357692 1.260715,3.343318 0.950385,5.018613 -0.480041,2.584465 -2.468091,4.46099 -5.358037,5.054981 -0.518832,0.106675 -0.967356,0.150316 -1.757727,0.167287 -0.705515,0.01455 -0.770975,0.01939 -0.872802,0.06788 -0.172136,0.08001 -0.305481,0.210928 -0.390337,0.385488 -0.07758,0.155165 -0.08001,0.172136 -0.0994,0.598839 -0.07031,1.575894 -0.453373,2.514156 -1.289808,3.146938 -0.322452,0.244869 -0.853407,0.475192 -1.217075,0.52853 -0.223049,0.03394 -6.66724,0.07516 -11.649487,0.07516 -4.2064221,0 -4.039135,0.0048 -4.4997807,-0.133345 C 6.9738847,28.715076 6.5956703,28.523544 6.3944409,28.363531 6.0065287,28.060474 5.744688,27.614375 5.6331633,27.064025 5.5870987,26.8434 5.5774009,26.678537 5.5580053,25.80331 5.524063,24.32682 5.4949696,17.630486 5.5046674,14.275046 c 0.0097,-3.197851 0.00242,-3.047535 0.1575893,-3.176031 l 0.072734,-0.06061 11.3730993,0.0073 c 10.703951,0.0048 11.392495,0.0097 11.654336,0.04849 z"
       id="path1"
       style="fill:#000000;stroke:none;stroke-width:0.00242445" />
    <path
       d="m 26.582844,13.162223 c -0.07273,0.0194 -0.167287,0.05576 -0.208502,0.08243 -0.116374,0.07273 -0.276388,0.254567 -0.334575,0.383063 l -0.05334,0.11395 -0.0073,3.782143 c -0.0073,4.145811 -0.01455,3.898517 0.138194,4.138538 0.08728,0.135769 0.223049,0.240021 0.412156,0.315179 0.130921,0.05091 0.167288,0.05334 0.911594,0.05334 0.790371,0 1.377088,-0.03394 1.6559,-0.09698 0.08486,-0.0194 0.281236,-0.08243 0.433977,-0.143043 1.769849,-0.693393 2.703263,-2.034114 2.819636,-4.048833 0.06546,-1.14919 -0.179409,-2.101999 -0.746731,-2.897219 -0.0897,-0.126072 -0.298207,-0.366092 -0.465494,-0.535804 -0.678846,-0.683695 -1.495886,-1.064334 -2.49476,-1.161312 -0.400035,-0.03879 -1.90077,-0.02909 -2.060784,0.01455 z m 2.305653,1.67772 c 0.429128,0.116374 0.790371,0.320027 1.08373,0.608537 0.557624,0.55035 0.780673,1.173434 0.746731,2.099575 -0.04849,1.316477 -0.487315,2.092301 -1.45952,2.574767 -0.370941,0.184258 -0.499437,0.220625 -0.90432,0.247294 -0.203654,0.01455 -0.450948,0.02667 -0.55035,0.02667 H 27.622934 V 17.581998 14.76721 l 0.540652,0.01212 c 0.443675,0.0073 0.569746,0.01939 0.724911,0.06061 z"
       id="path2"
       style="fill:#000000;stroke:none;stroke-width:0.00242445" />
    <path
       id="rect34"
       style="opacity:1;fill:#ff5d5b;fill-opacity:1;stroke:#000000;stroke-width:1.112;stroke-linecap:round;stroke-linejoin:round;stroke-dasharray:none;stroke-opacity:1"
       d="m 13.024091,13.651813 a 4.0136234,4.0136234 0 0 0 -2.83743,1.174873 4.0136234,4.0136234 0 0 0 0,5.676165 l 2.83743,2.838734 2.83743,2.837431 2.838735,-2.837432 2.83743,-2.838733 a 4.0136234,4.0136234 0 0 0 0,-5.676165 4.0136234,4.0136234 0 0 0 -5.676165,0 4.0136234,4.0136234 0 0 0 -2.83743,-1.174873 z" />
    <path
       style="opacity:1;fill:#ffffff;fill-opacity:1;stroke:none;stroke-width:0.076676;stroke-linecap:round;stroke-linejoin:round;stroke-dasharray:none;stroke-opacity:1"
       d="M 8.1020068,28.858663 C 7.397916,28.819146 7.2626766,28.790185 6.8953249,28.600254 6.3873023,28.337591 6.0201947,27.966978 5.8177063,27.512346 5.5850657,26.990016 5.5460382,25.487102 5.5669613,17.856373 c 0.01598,-5.827795 0.031129,-6.664823 0.1216818,-6.723215 0.06586,-0.04247 4.2987755,-0.06002 11.6530989,-0.04833 l 11.549669,0.01836 0.655848,0.180619 c 0.828777,0.228244 1.433034,0.501982 2.154099,0.975841 1.278574,0.840232 2.08204,1.992074 2.510895,3.599597 0.161244,0.604408 0.184582,0.825733 0.189039,1.792785 0.0044,0.948463 -0.01666,1.1786 -0.14993,1.640294 -0.839934,2.909922 -3.280069,4.64201 -6.739016,4.783576 -1.122177,0.04593 -1.347962,0.10896 -1.50772,0.420907 -0.05308,0.10365 -0.131251,0.547649 -0.173707,0.986665 -0.163956,1.695388 -0.657671,2.561302 -1.770454,3.105151 l -0.478454,0.233833 -4.585391,0.04336 c -5.695037,0.05386 -9.8561831,0.05112 -10.8946132,-0.0072 z M 16.211953,26.63809 c 0.31359,-0.236858 5.22431,-5.12847 5.80231,-5.779732 0.56637,-0.638157 1.042571,-1.521763 1.181689,-2.19266 0.12132,-0.585064 0.09352,-1.577279 -0.06115,-2.181998 -0.485081,-1.896646 -2.155081,-3.266133 -4.142332,-3.396928 -0.988237,-0.06504 -1.831048,0.142453 -2.690974,0.662501 l -0.442253,0.267457 -0.184154,-0.131081 c -0.101285,-0.07209 -0.412666,-0.2396 -0.691959,-0.372236 -2.139747,-1.016161 -4.727175,-0.216305 -5.9348456,1.83465 -0.3834627,0.651225 -0.5431455,1.218161 -0.5837474,2.07253 -0.04355,0.916395 0.087536,1.56072 0.478972,2.354294 0.2708083,0.54902 0.3775566,0.664801 3.494251,3.789886 3.46774,3.477076 3.357972,3.387692 3.774189,3.073317 z m 12.920795,-4.681039 c 0.170659,-0.03858 0.574036,-0.200041 0.896392,-0.358807 1.528004,-0.752571 2.346238,-2.219728 2.343391,-4.20188 -0.0019,-1.357194 -0.327536,-2.188791 -1.198889,-3.062141 -0.593723,-0.595084 -1.119378,-0.915138 -1.789835,-1.08977 -0.519183,-0.13523 -1.64718,-0.20419 -2.363692,-0.144505 -0.562768,0.04688 -0.621089,0.0664 -0.833788,0.279099 l -0.228696,0.228696 0.01887,4.010237 0.01887,4.010238 0.225186,0.201173 0.225186,0.201172 1.188356,-0.0017 c 0.653595,-9.27e-4 1.327985,-0.03325 1.498645,-0.07183 z"
       id="path43" />
  </g>
</svg>
