<?xml version="1.0" encoding="UTF-8" standalone="no"?>
<!-- Created with Inkscape (http://www.inkscape.org/) -->

<svg
   width="52.916668mm"
   height="6.5247102mm"
   viewBox="0 0 52.916668 6.5247102"
   version="1.1"
   id="svg1"
   inkscape:version="1.3 (0e150ed6c4, 2023-07-21)"
   sodipodi:docname="logo.svg"
   xmlns:inkscape="http://www.inkscape.org/namespaces/inkscape"
   xmlns:sodipodi="http://sodipodi.sourceforge.net/DTD/sodipodi-0.dtd"
   xmlns:xlink="http://www.w3.org/1999/xlink"
   xmlns="http://www.w3.org/2000/svg"
   xmlns:svg="http://www.w3.org/2000/svg">
  <sodipodi:namedview
     id="namedview1"
     pagecolor="#ffffff"
     bordercolor="#111111"
     borderopacity="1"
     inkscape:showpageshadow="0"
     inkscape:pageopacity="0"
     inkscape:pagecheckerboard="1"
     inkscape:deskcolor="#d1d1d1"
     inkscape:document-units="mm"
     inkscape:zoom="4.4447732"
     inkscape:cx="91.343243"
     inkscape:cy="34.19747"
     inkscape:window-width="1920"
     inkscape:window-height="1080"
     inkscape:window-x="1920"
     inkscape:window-y="0"
     inkscape:window-maximized="1"
     inkscape:current-layer="layer1" />
  <defs
     id="defs1">
    <linearGradient
       id="linearGradient4"
       inkscape:collect="always">
      <stop
         style="stop-color:#1c9a4c;stop-opacity:0.98431373;"
         offset="0"
         id="stop4" />
      <stop
         style="stop-color:#1da194;stop-opacity:0.93333334;"
         offset="1"
         id="stop5" />
    </linearGradient>
    <rect
       x="214.99431"
       y="385.41037"
       width="578.70648"
       height="166.66794"
       id="rect1" />
    <rect
       x="214.99431"
       y="385.41037"
       width="578.70648"
       height="166.66794"
       id="rect2" />
    <filter
       style="color-interpolation-filters:sRGB"
       inkscape:label="Blur"
       id="filter3"
       x="-0.0094227111"
       y="-0.090110905"
       width="1.0188454"
       height="1.1802218">
      <feGaussianBlur
         stdDeviation="2 2"
         result="blur"
         id="feGaussianBlur3" />
    </filter>
    <linearGradient
       inkscape:collect="always"
       xlink:href="#linearGradient4"
       id="linearGradient5"
       x1="199.83379"
       y1="444.1102"
       x2="727.73859"
       y2="395.91403"
       gradientUnits="userSpaceOnUse"
       gradientTransform="matrix(0.1017056,0,0,0.1017056,19.348113,72.333962)" />
    <filter
       style="color-interpolation-filters:sRGB"
       inkscape:label="Blur"
       id="filter6"
       x="-0.01068402"
       y="-0.10217266"
       width="1.021368"
       height="1.2043453">
      <feGaussianBlur
         stdDeviation="0.6 0.6"
         result="blur"
         id="feGaussianBlur6" />
    </filter>
  </defs>
  <g
     inkscape:label="Layer 1"
     inkscape:groupmode="layer"
     id="layer1"
     transform="translate(-40.401019,-111.751)">
    <path
       style="font-weight:600;font-size:64px;line-height:1.25;font-family:'FiraCode Nerd Font';-inkscape-font-specification:'FiraCode Nerd Font, Semi-Bold';white-space:pre;opacity:0.26118599;stroke-width:0.264583;filter:url(#filter6)"
       d="m 52.278902,115.01452 -1.554396,12.00964 h -2.61381 l -1.050735,-8.75323 -1.111522,8.75323 H 43.282526 L 41.84102,115.01452 h 2.266461 l 0.71207,9.84738 1.146255,-8.45798 h 2.240412 l 1.085469,8.45798 0.885743,-9.84738 z m 5.192895,-1.82359 q 0.625231,0 1.024683,0.39076 0.399455,0.39078 0.399455,0.97259 0,0.58181 -0.399455,0.98126 -0.399452,0.39077 -1.024683,0.39077 -0.633916,0 -1.033368,-0.39077 -0.399452,-0.39945 -0.399452,-0.98126 0,-0.58181 0.399452,-0.97259 0.399452,-0.39076 1.033368,-0.39076 z m 1.484923,4.63712 v 7.57224 h 2.422769 v 1.62387 H 53.97224 v -1.62387 h 2.691966 v -5.94837 h -2.605127 v -1.62387 z m 9.508726,-3.67323 v 10.19474 q 0,0.59918 0.356034,0.85101 0.356033,0.25182 0.946531,0.25182 0.373401,0 0.720751,-0.0781 0.34735,-0.0868 0.659966,-0.20841 l 0.564444,1.56308 q -0.43419,0.22578 -1.059419,0.39077 -0.616547,0.16499 -1.432821,0.16499 -1.502291,0 -2.275145,-0.85969 -0.772855,-0.8597 -0.772855,-2.31857 v -8.32772 H 63.42018 v -1.62387 z m 10.420519,0 v 10.19474 q 0,0.59918 0.356034,0.85101 0.356034,0.25182 0.946531,0.25182 0.373401,0 0.720751,-0.0781 0.34735,-0.0868 0.659966,-0.20841 l 0.564444,1.56308 q -0.434187,0.22578 -1.059418,0.39077 -0.616546,0.16499 -1.43282,0.16499 -1.50229,0 -2.275146,-0.85969 -0.772854,-0.8597 -0.772854,-2.31857 v -8.32772 h -2.752754 v -1.62387 z m 11.801239,10.11658 h -3.951113 l -0.746802,2.75276 h -2.457505 l 3.76007,-12.00964 h 2.917743 l 3.751384,12.00964 h -2.526974 z m -3.525607,-1.78017 h 3.082734 l -1.537025,-5.69654 z m 13.520623,-8.57955 2.29251,0.24314 v 12.86934 h -2.032 l -0.13894,-1.08547 q -0.4255,0.60786 -1.068097,0.98126 -0.642602,0.36472 -1.493611,0.36472 -1.163624,0 -1.927794,-0.60786 -0.755488,-0.60787 -1.128889,-1.70202 -0.364718,-1.10284 -0.364718,-2.56171 0,-1.39809 0.434189,-2.49224 0.44287,-1.10284 1.259144,-1.72807 0.816274,-0.62523 1.945161,-0.62523 1.345988,0 2.223045,0.92916 z m -1.606497,5.36656 q -0.868375,0 -1.372033,0.75549 -0.494975,0.7468 -0.494975,2.38803 0,1.73676 0.46024,2.44014 0.46024,0.70338 1.241777,0.70338 0.573131,0 1.007321,-0.33866 0.434187,-0.34735 0.764167,-0.85969 v -4.18558 q -0.3213,-0.4255 -0.720747,-0.65996 -0.39077,-0.24315 -0.88575,-0.24315 z m 14.032967,5.32315 q 0,0.52971 0.15631,0.77285 0.1563,0.24315 0.50365,0.35604 l -0.49497,1.53702 q -0.72944,-0.0781 -1.25046,-0.36472 -0.52103,-0.29524 -0.79891,-0.87706 -0.52102,0.63392 -1.31993,0.94653 -0.79022,0.31262 -1.6586,0.31262 -1.40677,0 -2.23172,-0.79891 -0.82496,-0.7989 -0.82496,-2.07542 0,-1.46755 1.14626,-2.25777 1.15494,-0.79891 3.26509,-0.79891 h 1.2852 v -0.49497 q 0,-0.81628 -0.51235,-1.181 -0.50365,-0.3734 -1.4415,-0.3734 -0.44287,0 -1.11152,0.12158 -0.66865,0.11288 -1.36335,0.35603 l -0.54708,-1.57176 q 0.87706,-0.32998 1.7628,-0.48629 0.89443,-0.15631 1.62387,-0.15631 1.93648,0 2.87432,0.82496 0.93785,0.81627 0.93785,2.31856 z m -4.11611,1.02468 q 0.52103,0 1.05074,-0.28656 0.52971,-0.29525 0.84233,-0.83364 v -1.78886 h -0.90312 q -1.27651,0 -1.84964,0.40814 -0.56444,0.40813 -0.56444,1.15494 0,1.34598 1.42413,1.34598 z m 13.73772,-8.05853 q 0.86838,0 1.37204,0.58181 0.50365,0.57313 0.50365,2.05805 v 6.81676 h -1.99726 v -6.53019 q 0,-0.61655 -0.0955,-0.87706 -0.0955,-0.2692 -0.45156,-0.2692 -0.28656,0 -0.58181,0.17368 -0.29525,0.16499 -0.59918,0.59918 v 6.90359 h -1.72807 v -6.53019 q 0,-0.61655 -0.0955,-0.87706 -0.0955,-0.2692 -0.45155,-0.2692 -0.28657,0 -0.58181,0.17368 -0.29525,0.16499 -0.59919,0.59918 v 6.90359 h -2.02331 v -9.19611 h 1.7107 l 0.14762,0.95522 q 0.40814,-0.56445 0.8597,-0.88575 0.45155,-0.32998 1.08547,-0.32998 0.52102,0 0.92047,0.26051 0.40814,0.25183 0.58181,0.86838 0.39946,-0.50366 0.88575,-0.81627 0.49498,-0.31262 1.13757,-0.31262 z m 7.38121,8.0238 q 0.80759,0 1.29388,-0.27788 0.49497,-0.27788 0.49497,-0.79891 0,-0.32998 -0.16499,-0.56445 -0.15631,-0.24314 -0.62523,-0.44287 -0.46892,-0.20841 -1.40677,-0.46024 -0.88574,-0.22577 -1.55439,-0.55576 -0.65997,-0.33866 -1.03337,-0.86837 -0.36472,-0.52971 -0.36472,-1.3373 0,-1.19836 1.00732,-1.95385 1.00731,-0.76417 2.81354,-0.76417 1.18099,0 2.06673,0.31262 0.88574,0.30393 1.51966,0.76417 l -0.93785,1.39808 q -0.55576,-0.35603 -1.20704,-0.57313 -0.6426,-0.22577 -1.3894,-0.22577 -0.80759,0 -1.18099,0.23446 -0.36472,0.23446 -0.36472,0.65128 0,0.29525 0.18236,0.50366 0.19104,0.19972 0.67733,0.39077 0.49498,0.18236 1.40677,0.44287 0.89443,0.25183 1.55439,0.58181 0.66865,0.32998 1.03337,0.87706 0.36472,0.5384 0.36472,1.42414 0,0.99863 -0.58181,1.64991 -0.58181,0.65128 -1.53703,0.97258 -0.95521,0.31262 -2.05805,0.31262 -1.30256,0 -2.27515,-0.3734 -0.97258,-0.3734 -1.64991,-0.9639 l 1.18968,-1.3373 q 0.53839,0.42551 1.22441,0.70339 0.6947,0.27788 1.50229,0.27788 z m 8.93559,-0.10421 q 0,-0.72944 0.52103,-1.25915 0.52103,-0.5297 1.26783,-0.5297 0.75548,0 1.27651,0.5297 0.52103,0.52971 0.52103,1.25915 0,0.73812 -0.52103,1.26783 -0.52103,0.52971 -1.27651,0.52971 -0.7468,0 -1.26783,-0.52971 -0.52103,-0.52971 -0.52103,-1.26783 z m 13.73772,-11.57545 2.29251,0.24314 v 12.86934 h -2.032 l -0.13894,-1.08547 q -0.4255,0.60786 -1.0681,0.98126 -0.6426,0.36472 -1.49361,0.36472 -1.16362,0 -1.92779,-0.60786 -0.75549,-0.60787 -1.12889,-1.70202 -0.36472,-1.10284 -0.36472,-2.56171 0,-1.39809 0.43419,-2.49224 0.44287,-1.10284 1.25915,-1.72807 0.81627,-0.62523 1.94516,-0.62523 1.34598,0 2.22304,0.92916 z m -1.6065,5.36656 q -0.86837,0 -1.37203,0.75549 -0.49497,0.7468 -0.49497,2.38803 0,1.73676 0.46024,2.44014 0.46023,0.70338 1.24177,0.70338 0.57313,0 1.00732,-0.33866 0.43419,-0.34735 0.76417,-0.85969 v -4.18558 q -0.3213,-0.4255 -0.72075,-0.65996 -0.39077,-0.24315 -0.88575,-0.24315 z m 8.64904,3.84691 q 0.1042,1.29388 0.76417,1.86701 0.65996,0.57312 1.60649,0.57312 0.65997,0 1.24178,-0.20841 0.58181,-0.20841 1.14626,-0.58181 l 0.95521,1.31125 q -0.6426,0.53839 -1.53702,0.86838 -0.88575,0.32998 -1.95385,0.32998 -1.49361,0 -2.51829,-0.61655 -1.016,-0.61654 -1.53703,-1.7107 -0.52102,-1.09415 -0.52102,-2.51829 0,-1.37203 0.50366,-2.47487 0.51234,-1.10284 1.47624,-1.74544 0.97258,-0.65128 2.33593,-0.65128 1.89306,0 3.00458,1.23309 1.11152,1.2331 1.11152,3.41272 0,0.50366 -0.0434,0.9118 z m 1.97121,-3.94243 q -0.83364,0 -1.37203,0.59918 -0.52971,0.59918 -0.62523,1.87569 h 3.87295 q -0.0173,-1.16362 -0.4776,-1.8149 -0.46024,-0.65997 -1.39809,-0.65997 z m 14.82319,-1.35467 -3.16089,9.19611 h -2.69197 l -3.17825,-9.19611 h 2.46618 l 2.09279,7.36383 2.13621,-7.36383 z"
       id="path4"
       aria-label="WillAdams.dev"
       transform="matrix(0.38439912,0,0,0.38439912,24.870903,68.794045)" />
    <path
       style="font-weight:600;font-size:64px;line-height:1.25;font-family:'FiraCode Nerd Font';-inkscape-font-specification:'FiraCode Nerd Font, Semi-Bold';white-space:pre;fill:url(#linearGradient5);fill-opacity:1;stroke-width:0.101706"
       d="m 45.223195,112.61135 -0.597508,4.6165 h -1.004746 l -0.403902,-3.36474 -0.427268,3.36474 h -1.024775 l -0.554113,-4.6165 h 0.871225 l 0.27372,3.78533 0.440619,-3.25124 h 0.861212 l 0.417254,3.25124 0.340479,-3.78533 z m 1.996145,-0.70098 q 0.240338,0 0.393887,0.15021 0.15355,0.15021 0.15355,0.37386 0,0.22364 -0.15355,0.37719 -0.153549,0.15021 -0.393887,0.15021 -0.243677,0 -0.397226,-0.15021 -0.153549,-0.15355 -0.153549,-0.37719 0,-0.22365 0.153549,-0.37386 0.153549,-0.15021 0.397226,-0.15021 z m 0.570803,1.7825 v 2.91077 h 0.93131 v 0.62421 h -2.84734 v -0.62421 h 1.03479 v -2.28656 h -1.001409 v -0.62421 z m 3.655146,-1.41198 v 3.91884 q 0,0.23033 0.136859,0.32713 0.136859,0.0968 0.363846,0.0968 0.143535,0 0.277056,-0.03 0.133521,-0.0334 0.25369,-0.0801 l 0.216972,0.60084 q -0.166902,0.0868 -0.40724,0.15021 -0.237,0.0634 -0.550775,0.0634 -0.577479,0 -0.874564,-0.33047 -0.297085,-0.33046 -0.297085,-0.89125 v -3.20117 h -1.058155 v -0.62421 z m 4.005638,0 v 3.91884 q 0,0.23033 0.136859,0.32713 0.136859,0.0968 0.363846,0.0968 0.143535,0 0.277056,-0.03 0.133521,-0.0334 0.253691,-0.0801 l 0.216971,0.60084 q -0.166901,0.0868 -0.407239,0.15021 -0.237,0.0634 -0.550775,0.0634 -0.577479,0 -0.874564,-0.33047 -0.297084,-0.33046 -0.297084,-0.89125 v -3.20117 h -1.058156 v -0.62421 z m 4.536386,3.8888 h -1.518804 l -0.28707,1.05816 h -0.944663 l 1.445368,-4.6165 h 1.121577 l 1.442029,4.6165 h -0.971367 z m -1.35524,-0.68429 h 1.185 l -0.590831,-2.18975 z m 5.197316,-3.29798 0.881239,0.0935 v 4.94696 h -0.781099 l -0.05341,-0.41726 q -0.163563,0.23367 -0.410577,0.3772 -0.247014,0.1402 -0.574141,0.1402 -0.447296,0 -0.741043,-0.23366 -0.290409,-0.23367 -0.433944,-0.65426 -0.140197,-0.42393 -0.140197,-0.98472 0,-0.53742 0.166902,-0.95801 0.170239,-0.42393 0.484014,-0.66427 0.313775,-0.24034 0.747718,-0.24034 0.517395,0 0.854537,0.35717 z m -0.617536,2.0629 q -0.333803,0 -0.527409,0.29041 -0.190268,0.28707 -0.190268,0.91796 0,0.66761 0.176916,0.93799 0.176916,0.27038 0.477338,0.27038 0.220311,0 0.387212,-0.13019 0.166902,-0.13352 0.293747,-0.33046 v -1.60893 q -0.123507,-0.16356 -0.277058,-0.25369 -0.150211,-0.0935 -0.340478,-0.0935 z m 5.394259,2.04622 q 0,0.20362 0.06009,0.29708 0.06008,0.0935 0.193606,0.13686 l -0.190268,0.59083 q -0.280395,-0.03 -0.480677,-0.1402 -0.200282,-0.11349 -0.307098,-0.33714 -0.200282,0.24368 -0.507381,0.36385 -0.303761,0.12017 -0.637564,0.12017 -0.54076,0 -0.857873,-0.3071 -0.317113,-0.3071 -0.317113,-0.79779 0,-0.56413 0.44062,-0.86789 0.443958,-0.3071 1.255099,-0.3071 h 0.494029 v -0.19026 q 0,-0.31378 -0.196944,-0.45398 -0.193606,-0.14353 -0.554114,-0.14353 -0.170238,0 -0.427267,0.0467 -0.257028,0.0434 -0.52407,0.13686 l -0.210297,-0.60418 q 0.337141,-0.12685 0.677621,-0.18693 0.343816,-0.0601 0.624211,-0.0601 0.744381,0 1.104888,0.31712 0.360507,0.31377 0.360507,0.89125 z m -1.582227,0.39388 q 0.200283,0 0.403903,-0.11015 0.203619,-0.11349 0.323789,-0.32045 v -0.68764 h -0.347156 q -0.49069,0 -0.711001,0.15689 -0.216971,0.15689 -0.216971,0.44396 0,0.51739 0.547436,0.51739 z m 5.280767,-3.09769 q 0.333804,0 0.527409,0.22365 0.193605,0.22031 0.193605,0.79111 v 2.62036 H 72.25792 v -2.5102 q 0,-0.237 -0.03672,-0.33714 -0.03672,-0.10348 -0.173578,-0.10348 -0.110154,0 -0.223647,0.0668 -0.113494,0.0634 -0.230325,0.23032 v 2.65374 h -0.664268 v -2.5102 q 0,-0.237 -0.03672,-0.33714 -0.03672,-0.10348 -0.173578,-0.10348 -0.110156,0 -0.223648,0.0668 -0.113493,0.0634 -0.230324,0.23032 v 2.65374 h -0.777761 v -3.53498 h 0.657591 l 0.05675,0.36719 q 0.156888,-0.21698 0.330465,-0.34048 0.173578,-0.12685 0.417254,-0.12685 0.200282,0 0.353831,0.10014 0.156887,0.0968 0.223648,0.33381 0.15355,-0.19361 0.340479,-0.31378 0.190268,-0.12017 0.437282,-0.12017 z m 2.837329,3.08434 q 0.310437,0 0.497365,-0.10681 0.190268,-0.10682 0.190268,-0.3071 0,-0.12685 -0.06342,-0.21698 -0.06009,-0.0935 -0.240338,-0.17024 -0.180254,-0.0801 -0.540761,-0.17691 -0.340479,-0.0868 -0.597508,-0.21363 -0.25369,-0.13019 -0.397225,-0.33381 -0.140197,-0.20362 -0.140197,-0.51405 0,-0.46065 0.387211,-0.75106 0.387212,-0.29375 1.081522,-0.29375 0.453973,0 0.794451,0.12017 0.340479,0.11683 0.584156,0.29375 l -0.360508,0.53742 q -0.213634,-0.13686 -0.463986,-0.22031 -0.247015,-0.0868 -0.534085,-0.0868 -0.310437,0 -0.453972,0.0901 -0.140197,0.0901 -0.140197,0.25035 0,0.11349 0.0701,0.19361 0.07344,0.0768 0.260366,0.15021 0.190268,0.0701 0.540761,0.17024 0.343816,0.0968 0.597507,0.22365 0.257028,0.12684 0.397225,0.33714 0.140198,0.20695 0.140198,0.54743 0,0.38388 -0.223648,0.63423 -0.223648,0.25035 -0.590832,0.37386 -0.367183,0.12017 -0.791112,0.12017 -0.500705,0 -0.874565,-0.14354 -0.373858,-0.14353 -0.634225,-0.37052 l 0.45731,-0.51406 q 0.206958,0.16357 0.470662,0.27039 0.267043,0.10681 0.57748,0.10681 z m 3.434835,-0.04 q 0,-0.2804 0.200281,-0.48402 0.200283,-0.20362 0.487353,-0.20362 0.290408,0 0.490691,0.20362 0.200282,0.20362 0.200282,0.48402 0,0.28373 -0.200282,0.48735 -0.200283,0.20362 -0.490691,0.20362 -0.28707,0 -0.487353,-0.20362 -0.200281,-0.20362 -0.200281,-0.48735 z m 5.280766,-4.4496 0.88124,0.0935 v 4.94696 h -0.781099 l -0.05341,-0.41726 q -0.163563,0.23367 -0.410578,0.3772 -0.247014,0.1402 -0.574141,0.1402 -0.447296,0 -0.741042,-0.23366 -0.290409,-0.23367 -0.433945,-0.65426 -0.140197,-0.42393 -0.140197,-0.98472 0,-0.53742 0.166901,-0.95801 0.17024,-0.42393 0.484015,-0.66427 0.313775,-0.24034 0.747718,-0.24034 0.517395,0 0.854536,0.35717 z m -0.617535,2.0629 q -0.333803,0 -0.527409,0.29041 -0.190268,0.28707 -0.190268,0.91796 0,0.66761 0.176916,0.93799 0.176915,0.27038 0.477338,0.27038 0.22031,0 0.387212,-0.13019 0.166901,-0.13352 0.293746,-0.33046 v -1.60893 q -0.123507,-0.16356 -0.277056,-0.25369 -0.150211,-0.0935 -0.340479,-0.0935 z m 3.324681,1.47875 q 0.04005,0.49737 0.293746,0.71768 0.25369,0.22031 0.617536,0.22031 0.25369,0 0.477338,-0.0801 0.223648,-0.0801 0.44062,-0.22365 l 0.367184,0.50404 q -0.247015,0.20696 -0.590833,0.3338 -0.340478,0.12685 -0.751056,0.12685 -0.574141,0 -0.968029,-0.237 -0.390549,-0.237 -0.590831,-0.65759 -0.200282,-0.4206 -0.200282,-0.96803 0,-0.52741 0.193606,-0.95134 0.196944,-0.42393 0.567466,-0.67095 0.373858,-0.25035 0.897929,-0.25035 0.727691,0 1.154958,0.474 0.427269,0.474 0.427269,1.31185 0,0.1936 -0.01669,0.35049 z m 0.757732,-1.51546 q -0.320451,0 -0.527409,0.23032 -0.203619,0.23032 -0.240337,0.72101 h 1.48876 q -0.0067,-0.44729 -0.183591,-0.69764 -0.176915,-0.25369 -0.537423,-0.25369 z m 5.69802,-0.52074 -1.215043,3.53498 h -1.034789 l -1.221719,-3.53498 h 0.948001 l 0.804464,2.83065 0.821156,-2.83065 z"
       id="text1"
       aria-label="WillAdams.dev" />
  </g>
</svg>
